<svg width="82" height="72" viewBox="0 0 82 72" fill="none" xmlns="http://www.w3.org/2000/svg">
<path d="M19 35.2402C19.0404 35.2402 19.0722 35.2523 19.0918 35.2656C19.1056 35.2752 19.1275 35.2946 19.1436 35.3467L22.2363 45.3652C22.4757 46.1407 23.1924 46.6699 24.0039 46.6699H34.1162C34.1678 46.6699 34.192 46.6837 34.2061 46.6943C34.225 46.7088 34.2463 46.7346 34.2588 46.7715C34.2712 46.8082 34.2699 46.8413 34.2637 46.8643C34.259 46.8812 34.2481 46.9071 34.207 46.9385L25.9395 53.2617C25.3241 53.7324 25.0674 54.5371 25.2959 55.2773L28.4326 65.4404C28.4484 65.4915 28.4416 65.5192 28.4355 65.5352C28.4271 65.5573 28.4076 65.5846 28.375 65.6074C28.3424 65.6302 28.3099 65.6393 28.2861 65.6396C28.269 65.6398 28.2407 65.636 28.1982 65.6035L20.124 59.4287C19.4607 58.9214 18.5393 58.9214 17.876 59.4287L9.80176 65.6035C9.75931 65.636 9.73096 65.6398 9.71387 65.6396C9.69013 65.6393 9.65765 65.6302 9.625 65.6074C9.59237 65.5846 9.57292 65.5573 9.56445 65.5352C9.5584 65.5192 9.55162 65.4915 9.56738 65.4404L12.7041 55.2773C12.9326 54.5371 12.6759 53.7324 12.0605 53.2617L3.79297 46.9385C3.75194 46.9071 3.74097 46.8812 3.73633 46.8643C3.73013 46.8413 3.72878 46.8082 3.74121 46.7715C3.75371 46.7346 3.77499 46.7088 3.79395 46.6943C3.80796 46.6837 3.83224 46.6699 3.88379 46.6699H13.9961C14.8076 46.6699 15.5243 46.1407 15.7637 45.3652L18.8564 35.3467C18.8725 35.2946 18.8944 35.2752 18.9082 35.2656C18.9278 35.2523 18.9596 35.2402 19 35.2402Z" stroke="#E1C561" stroke-width="1.7"/>
<path d="M42 3.24023C42.0404 3.24023 42.0722 3.25227 42.0918 3.26562C42.1056 3.27516 42.1275 3.2946 42.1436 3.34668L45.2363 13.3652C45.4757 14.1407 46.1924 14.6699 47.0039 14.6699H57.1162C57.1678 14.6699 57.192 14.6837 57.2061 14.6943C57.225 14.7088 57.2463 14.7346 57.2588 14.7715C57.2712 14.8082 57.2699 14.8413 57.2637 14.8643C57.259 14.8812 57.2481 14.9071 57.207 14.9385L48.9395 21.2617C48.3241 21.7324 48.0674 22.5371 48.2959 23.2773L51.4326 33.4404C51.4484 33.4915 51.4416 33.5192 51.4355 33.5352C51.4271 33.5573 51.4076 33.5846 51.375 33.6074C51.3424 33.6302 51.3099 33.6393 51.2861 33.6396C51.269 33.6398 51.2407 33.636 51.1982 33.6035L43.124 27.4287C42.4607 26.9214 41.5393 26.9214 40.876 27.4287L32.8018 33.6035C32.7593 33.636 32.731 33.6398 32.7139 33.6396C32.6901 33.6393 32.6576 33.6302 32.625 33.6074C32.5924 33.5846 32.5729 33.5573 32.5645 33.5352C32.5584 33.5192 32.5516 33.4915 32.5674 33.4404L35.7041 23.2773C35.9326 22.5371 35.6759 21.7324 35.0605 21.2617L26.793 14.9385C26.7519 14.9071 26.741 14.8812 26.7363 14.8643C26.7301 14.8413 26.7288 14.8082 26.7412 14.7715C26.7537 14.7346 26.775 14.7088 26.7939 14.6943C26.808 14.6837 26.8322 14.6699 26.8838 14.6699H36.9961C37.8076 14.6699 38.5243 14.1407 38.7637 13.3652L41.8564 3.34668C41.8725 3.2946 41.8944 3.27516 41.9082 3.26562C41.9278 3.25227 41.9596 3.24023 42 3.24023Z" stroke="#E1C561" stroke-width="1.7"/>
<path d="M63 35.2402C63.0404 35.2402 63.0722 35.2523 63.0918 35.2656C63.1056 35.2752 63.1275 35.2946 63.1436 35.3467L66.2363 45.3652C66.4757 46.1407 67.1924 46.6699 68.0039 46.6699H78.1162C78.1678 46.6699 78.192 46.6837 78.2061 46.6943C78.225 46.7088 78.2463 46.7346 78.2588 46.7715C78.2712 46.8082 78.2699 46.8413 78.2637 46.8643C78.259 46.8812 78.2481 46.9071 78.207 46.9385L69.9395 53.2617C69.3241 53.7324 69.0674 54.5371 69.2959 55.2773L72.4326 65.4404C72.4484 65.4915 72.4416 65.5192 72.4355 65.5352C72.4271 65.5573 72.4076 65.5846 72.375 65.6074C72.3424 65.6302 72.3099 65.6393 72.2861 65.6396C72.269 65.6398 72.2407 65.636 72.1982 65.6035L64.124 59.4287C63.4607 58.9214 62.5393 58.9214 61.876 59.4287L53.8018 65.6035C53.7593 65.636 53.731 65.6398 53.7139 65.6396C53.6901 65.6393 53.6576 65.6302 53.625 65.6074C53.5924 65.5846 53.5729 65.5573 53.5645 65.5352C53.5584 65.5192 53.5516 65.4915 53.5674 65.4404L56.7041 55.2773C56.9326 54.5371 56.6759 53.7324 56.0605 53.2617L47.793 46.9385C47.7519 46.9071 47.741 46.8812 47.7363 46.8643C47.7301 46.8413 47.7288 46.8082 47.7412 46.7715C47.7537 46.7346 47.775 46.7088 47.7939 46.6943C47.808 46.6837 47.8322 46.6699 47.8838 46.6699H57.9961C58.8076 46.6699 59.5243 46.1407 59.7637 45.3652L62.8564 35.3467C62.8725 35.2946 62.8944 35.2752 62.9082 35.2656C62.9278 35.2523 62.9596 35.2402 63 35.2402Z" stroke="#E1C561" stroke-width="1.7"/>
</svg>
