<svg width="67" height="67" viewBox="0 0 67 67" fill="none" xmlns="http://www.w3.org/2000/svg">
<path d="M46.4717 18.0332C46.9468 18.0332 47.4064 18.1921 47.7793 18.4824L47.9336 18.6152L47.9355 18.6172L52.1143 22.8301L52.2529 22.9814C52.3837 23.139 52.491 23.3158 52.5703 23.5059C52.676 23.7591 52.7304 24.031 52.7305 24.3057C52.7305 24.5805 52.676 24.8531 52.5703 25.1064C52.4647 25.3595 52.3089 25.5882 52.1143 25.7803L52.1152 25.7812L29.6748 48.4062L29.6758 48.4072C29.4851 48.6039 29.2574 48.7604 29.0059 48.8672C28.7543 48.9739 28.4839 49.0283 28.2109 49.0283C27.938 49.0283 27.6675 48.9739 27.416 48.8672C27.1646 48.7605 26.9368 48.6038 26.7461 48.4072L14.2803 35.8379V35.8369C14.0808 35.6483 13.9214 35.4208 13.8125 35.168C13.7031 34.9139 13.6465 34.6402 13.6465 34.3633C13.6465 34.0862 13.703 33.8118 13.8125 33.5576C13.922 33.3034 14.0822 33.074 14.2832 32.8848L18.4609 28.6729L18.4629 28.6699C18.8591 28.2962 19.3819 28.088 19.9248 28.0879C20.4677 28.0879 20.9904 28.2962 21.3867 28.6699L21.3896 28.6729L28.2109 35.5508L45.0078 18.6172L45.0098 18.6143C45.406 18.2406 45.9288 18.0332 46.4717 18.0332ZM46.3984 19.5811C46.3433 19.5811 46.2885 19.5933 46.2383 19.6162C46.1882 19.6391 46.1429 19.6721 46.1064 19.7139L46.1025 19.7188L28.2109 37.7617L28.1406 37.833L28.0693 37.7617L20.1504 29.7764L20.0859 29.7246C20.0172 29.6797 19.9364 29.6553 19.8535 29.6553C19.7435 29.6553 19.6363 29.6975 19.5566 29.7744L19.5576 29.7754L15.377 33.9912L15.376 33.9902C15.289 34.0799 15.2412 34.2014 15.2412 34.3271C15.2413 34.4527 15.2893 34.5735 15.376 34.6631L27.8428 47.2324H27.8418C27.9307 47.3205 28.0506 47.3691 28.1748 47.3691C28.299 47.3691 28.4189 47.3204 28.5078 47.2324L50.9414 24.6113C50.9791 24.5641 51.0047 24.5082 51.0146 24.4482C51.0247 24.3876 51.019 24.3253 50.998 24.2676L50.9922 24.252V24.2354C50.99 24.1223 50.9475 24.0139 50.8721 23.9307V23.9297L46.6943 19.7188L46.6895 19.7139C46.6531 19.6723 46.6085 19.6391 46.5586 19.6162C46.5084 19.5933 46.4535 19.5811 46.3984 19.5811Z" fill="#E1C561" stroke="#E1C561" stroke-width="0.2"/>
<path d="M33.2002 0.103516C41.975 0.116934 50.3863 3.63756 56.5908 9.89355C62.7951 16.1494 66.2864 24.6298 66.2998 33.4766V33.4775C66.2997 40.078 64.3586 46.5304 60.7217 52.0186C57.0847 57.5067 51.9154 61.7845 45.8672 64.3105C39.8189 66.8366 33.1631 67.4978 26.7422 66.21C20.3215 64.9221 14.4239 61.7434 9.79492 57.0762C5.16595 52.4088 2.01348 46.4619 0.736328 39.9883C-0.54077 33.5146 0.115005 26.8042 2.62012 20.7061C5.12528 14.6078 9.36727 9.39482 14.8105 5.72754C20.2538 2.06033 26.6535 0.103517 33.2002 0.103516ZM45.2285 4.19434C39.4851 1.7957 33.1654 1.16785 27.0684 2.39062C20.9711 3.61351 15.3697 6.63195 10.9736 11.0645C6.57752 15.4971 3.58402 21.1455 2.37109 27.2939C1.15827 33.4422 1.78011 39.815 4.15918 45.6064C6.53841 51.3981 10.5681 56.3484 15.7373 59.8311C20.9064 63.3136 26.9835 65.1729 33.2002 65.1729L33.9805 65.1611C42.0303 64.9485 49.7058 61.6316 55.4141 55.876C61.3062 49.9347 64.6218 41.8799 64.6338 33.4775L64.6279 32.8896C64.5165 26.826 62.6819 20.9175 59.3359 15.8682C55.8819 10.6559 50.9721 6.59318 45.2285 4.19434Z" fill="#E1C561" stroke="#E1C561" stroke-width="0.2"/>
</svg>
