<svg width="67" height="67" viewBox="0 0 67 67" fill="none" xmlns="http://www.w3.org/2000/svg">
<path d="M33.2002 0.103516C41.975 0.116934 50.3863 3.63756 56.5908 9.89355C62.7951 16.1494 66.2864 24.6298 66.2998 33.4766V33.4775C66.2997 40.078 64.3586 46.5304 60.7217 52.0186C57.0847 57.5067 51.9154 61.7845 45.8672 64.3105C39.8189 66.8366 33.1631 67.4978 26.7422 66.21C20.3215 64.9221 14.4239 61.7434 9.79492 57.0762C5.16595 52.4088 2.01348 46.4619 0.736328 39.9883C-0.54077 33.5146 0.115005 26.8042 2.62012 20.7061C5.12528 14.6078 9.36727 9.39482 14.8105 5.72754C20.2538 2.06033 26.6535 0.103517 33.2002 0.103516ZM45.2285 4.19434C39.4851 1.7957 33.1654 1.16785 27.0684 2.39062C20.9711 3.61351 15.3697 6.63195 10.9736 11.0645C6.57752 15.4971 3.58402 21.1455 2.37109 27.2939C1.15827 33.4422 1.78011 39.815 4.15918 45.6064C6.53841 51.3981 10.5681 56.3484 15.7373 59.8311C20.9064 63.3136 26.9835 65.1729 33.2002 65.1729L33.9805 65.1611C42.0303 64.9485 49.7058 61.6316 55.4141 55.876C61.3062 49.9347 64.6218 41.8799 64.6338 33.4775L64.6279 32.8896C64.5165 26.826 62.6819 20.9175 59.3359 15.8682C55.8819 10.6559 50.9721 6.59318 45.2285 4.19434Z" fill="#E1C561" stroke="#E1C561" stroke-width="0.2"/>
<path d="M47.383 42.4311L36.8754 23.4605L36.7146 21.8086L40.4137 14.4548C40.4673 14.3482 40.4673 14.1883 40.4137 14.0817C40.3601 13.9752 40.1993 13.9219 40.092 13.9219H25.6174C25.5101 13.9219 25.3493 13.9752 25.2957 14.0817C25.2421 14.1883 25.1885 14.2949 25.2421 14.4548L28.9412 21.8086L25.1885 51.5434C25.1885 51.65 25.2421 51.7566 25.2957 51.8632L32.265 58.2578C32.4258 58.3644 32.6403 58.3644 32.7475 58.2578L39.7168 51.8632C39.824 51.7566 39.824 51.65 39.824 51.5434L38.3765 37.9016L42.5581 45.3087C42.6117 45.4153 42.6653 45.4686 42.7725 45.4686L46.0964 46.5876C46.2036 46.6409 46.3108 46.5876 46.418 46.5343C46.5252 46.4811 46.5788 46.3745 46.5788 46.2679L47.3294 42.6443C47.4366 42.591 47.383 42.5377 47.383 42.4311ZM26.2071 14.6146H39.4487L36.0713 21.329H29.5845L26.2071 14.6146ZM32.5866 57.4585L25.9926 51.4369L29.6917 22.1283H36.0177L37.4652 36.1431L39.1271 51.3836L32.5866 57.4585ZM45.9891 45.735L43.2014 44.8291L38.2157 35.9833L37.0899 25.3789L46.6325 42.6443L45.9891 45.735Z" fill="#E1C561" stroke="#E1C561" stroke-miterlimit="10"/>
</svg>
