<svg width="88" height="64" viewBox="0 0 88 64" fill="none" xmlns="http://www.w3.org/2000/svg">
<path d="M40.8672 0.371094C41.3878 0.0739472 42.1187 0.354652 42.4648 0.950195C42.7763 1.57697 42.4806 2.22084 41.8828 2.5625C31.7942 7.36968 25.134 17.3642 24.5459 28.4375L24.5322 28.7012H27.8105C28.4503 28.7013 29.0186 29.2704 29.0186 29.9102C29.0183 30.5498 28.4502 31.1181 27.8105 31.1182H24.5332L24.5459 31.3809C25.3302 46.9701 37.8799 59.5193 53.4688 60.3037L53.7314 60.3174V57.04C53.7314 56.4002 54.2997 55.8311 54.9395 55.8311C55.5793 55.8311 56.1484 56.4002 56.1484 57.04V60.3154L56.4092 60.3037C72 59.6173 84.5487 47.0666 85.333 31.3809L85.3457 31.1182H82.0684C81.4288 31.118 80.8606 30.5497 80.8604 29.9102C80.8604 29.2704 81.4287 28.7014 82.0684 28.7012H85.3477L85.333 28.4375C84.9412 21.3842 82.1988 14.6222 77.3008 9.32812C76.8973 8.8427 76.8958 8.12053 77.375 7.63281C77.8618 7.23379 78.5819 7.23643 79.0674 7.71777C84.6626 13.7971 87.75 21.7084 87.75 30.0068C87.75 48.0525 72.9847 62.8184 54.9395 62.8184C36.8942 62.8183 22.1289 48.0525 22.1289 30.0068C22.129 17.3653 29.4632 5.78496 40.8496 0.380859L40.8672 0.371094Z" fill="#E1C561" stroke="#E8E8E8" stroke-width="0.5"/>
<path d="M36.0586 9.95801C36.5444 9.47223 37.2613 9.47227 37.7471 9.95801L53.5967 25.8086L53.6973 25.9082L53.834 25.874C54.2288 25.7753 54.5876 25.6865 54.9404 25.6865C55.5751 25.6865 56.2177 25.8686 56.7734 26.1465L56.9336 26.2266L57.0615 26.1006L69.8965 13.3623L69.8975 13.3613C70.3833 12.8757 71.1002 12.8756 71.5859 13.3613C72.0716 13.8471 72.0715 14.564 71.5859 15.0498L58.623 28.0127L58.7031 28.1738C58.9809 28.7295 59.163 29.3722 59.1631 30.0068C59.1631 32.2998 57.2333 34.2305 54.9404 34.2305C52.644 34.2305 50.7178 32.3935 50.7178 30.0068C50.7178 28.9885 50.9937 28.1669 51.543 27.4346L51.6729 27.2607L36.0586 11.6465C35.5729 11.1607 35.5728 10.4438 36.0586 9.95801Z" fill="#E1C561" stroke="#E8E8E8" stroke-width="0.5"/>
<path d="M1.45898 28.7969H18.4746C19.1144 28.7969 19.6836 29.366 19.6836 30.0059C19.6834 30.6456 19.1143 31.2139 18.4746 31.2139H1.45898C0.808195 31.2139 0.250199 30.7319 0.25 30.0059C0.25 29.2796 0.808078 28.7969 1.45898 28.7969Z" fill="#E1C561" stroke="#E8E8E8" stroke-width="0.5"/>
<path d="M6.32227 40.9531H16.0459C16.6856 40.9533 17.2539 41.5224 17.2539 42.1621C17.2537 42.8017 16.6855 43.3699 16.0459 43.3701H6.32227C5.68257 43.3701 5.11351 42.8018 5.11328 42.1621C5.11328 41.5223 5.68244 40.9531 6.32227 40.9531Z" fill="#E1C561" stroke="#E8E8E8" stroke-width="0.5"/>
</svg>
