<svg width="67" height="66" viewBox="0 0 67 66" fill="none" xmlns="http://www.w3.org/2000/svg">
<path d="M21.1371 38.6298C19.3852 37.0009 18.2127 34.8446 17.7978 32.4886C17.5647 30.2347 18.4196 27.9031 21.1398 25.4938C21.9915 24.8467 22.661 23.9898 23.0828 23.0068C23.2556 22.3344 23.2825 21.6329 23.1619 20.9492C23.0413 20.2656 22.7758 19.6157 22.3833 19.0431C19.8963 15.7788 17.3315 12.4369 15.0776 9.55989C14.5458 8.98316 13.8667 8.56255 13.1134 8.34341C12.3601 8.12427 11.5613 8.11492 10.803 8.31636C9.51212 8.8449 8.34695 9.63934 7.38336 10.648C1.47664 16.5547 -0.777233 22.1519 0.233127 27.9031C1.24349 33.6544 5.36265 39.407 11.737 45.7801L19.4313 53.4744C25.8821 59.9251 31.557 63.9679 37.3082 64.9783C43.0595 65.9886 48.7344 63.7347 54.5634 57.828C55.572 56.8644 56.3665 55.6993 56.895 54.4083C57.1147 53.6513 57.1144 52.8473 56.8942 52.0904C56.674 51.3335 56.243 50.6548 55.6515 50.1337C52.7759 47.8799 49.3535 45.3097 46.1683 42.8281C45.5875 42.4534 44.9377 42.1985 44.257 42.0784C43.5764 41.9583 42.8786 41.9754 42.2046 42.1286C41.2216 42.5504 40.3647 43.2198 39.7176 44.0716C37.3056 46.7918 34.8936 47.569 32.7228 47.4135C30.3386 47.0809 28.1566 45.8932 26.5829 44.0716L21.1371 38.6298ZM13.9869 10.6493C16.3185 13.6804 18.6501 16.7892 21.0594 19.8216C21.3433 20.2077 21.5391 20.6514 21.6331 21.1214C21.7271 21.5913 21.717 22.0762 21.6034 22.5418C21.2359 23.275 20.7039 23.9134 20.0491 24.4071C18.7973 25.3892 17.7985 26.6565 17.136 28.1031C16.4736 29.5497 16.1666 31.1338 16.2408 32.7231C16.5956 35.4693 17.9517 37.9878 20.0491 39.7956L25.5698 45.3138C27.4224 47.3548 29.9187 48.6989 32.6424 49.122C34.2317 49.1962 35.8158 48.8893 37.2624 48.2268C38.709 47.5643 39.9762 46.5655 40.9584 45.3138C41.4521 44.6589 42.0905 44.1269 42.8237 43.7594C43.4455 43.5262 44.1449 43.6039 45.5439 44.3034C48.575 46.635 51.6838 48.9666 54.7162 51.3759C55.1165 51.6901 55.4124 52.1181 55.565 52.6036C55.7176 53.0891 55.7197 53.6094 55.5711 54.0961C55.1141 55.1477 54.4538 56.0985 53.6281 56.894C47.9545 62.5676 42.9791 64.5106 37.7719 63.578C32.5647 62.6453 26.9675 58.837 20.6722 52.4627L12.9739 44.7697C6.67586 38.4717 2.78984 32.8772 1.85854 27.67C0.927244 22.4627 2.86891 17.486 8.54247 11.8138C9.33798 10.9881 10.2888 10.3278 11.3404 9.87076C12.1953 9.48216 12.9725 9.55988 13.9829 10.648L13.9869 10.6493Z" fill="#E1C561"/>
<path d="M31.1628 0.855666C31.2091 1.04979 31.3178 1.22336 31.4722 1.34972C31.6267 1.47608 31.8183 1.54825 32.0177 1.55515C36.409 1.54773 40.7585 2.40721 44.817 4.0843C48.8754 5.76138 52.5628 8.22309 55.6679 11.3283C58.7729 14.4334 61.2345 18.121 62.9114 22.1795C64.5883 26.2379 65.4476 30.5875 65.44 34.9788C65.44 35.1849 65.5219 35.3826 65.6677 35.5284C65.8134 35.6741 66.0111 35.756 66.2172 35.756C66.4233 35.756 66.621 35.6741 66.7668 35.5284C66.9125 35.3826 66.9944 35.1849 66.9944 34.9788C66.9799 25.7076 63.2905 16.8202 56.7347 10.2645C50.179 3.70871 41.2916 0.0192949 32.0204 0.0047651C31.9052 -0.00805713 31.7887 0.00507745 31.6793 0.0432051C31.5698 0.0813327 31.4703 0.143485 31.3881 0.225097C31.3058 0.306709 31.2429 0.405708 31.2039 0.514826C31.1649 0.623943 31.1509 0.740408 31.1628 0.855666Z" fill="#E1C561"/>
<path d="M33.8457 24.9219H26.7686V23.9932L26.8242 23.9355L29.6572 20.9863L29.6602 20.9834C30.2489 20.3929 30.8022 19.768 31.3174 19.1123C31.598 18.741 31.8284 18.3342 32.002 17.9023C32.1456 17.5239 32.2196 17.1226 32.2197 16.7178V16.7109L32.2158 16.5156C32.2016 16.3208 32.1565 16.1291 32.083 15.9473C31.985 15.7048 31.8378 15.4851 31.6504 15.3027V15.3018C31.4529 15.12 31.2215 14.9787 30.9697 14.8857C30.7163 14.7922 30.4467 14.7501 30.1768 14.7607H30.1719C29.2814 14.7726 28.4231 15.0954 27.7451 15.6729L27.5879 15.8057L27.459 15.6455L27.0596 15.1465L26.9404 14.9971L27.084 14.8711C27.9367 14.123 29.0317 13.7081 30.166 13.7031V13.7041C31.0128 13.6592 31.8441 13.9437 32.4844 14.5L32.4932 14.5078V14.5088C32.7829 14.7923 33.0088 15.1341 33.1562 15.5117C33.3037 15.8894 33.3696 16.2943 33.3486 16.6992C33.3422 17.442 33.1523 18.1719 32.7949 18.8232L32.79 18.8311C32.239 19.7373 31.5717 20.5673 30.8066 21.3018L28.3721 23.7959H33.8252L33.8301 23.9902L33.8457 24.5908V24.9219Z" fill="#E1C561" stroke="#E1C561" stroke-width="0.4"/>
<path d="M40.3237 13.8154V21.1719H42.1626V22.2021H40.3237V24.9189H39.2446V22.2021H33.7769V21.458L33.813 21.4062L39.0825 13.9004L39.1421 13.8154H40.3237ZM38.7505 16.1309L38.7476 16.1348L35.2075 21.1885H39.2446V18.3398C39.2446 17.1832 39.2661 16.1605 39.3081 15.2881C39.1619 15.5105 38.9761 15.7915 38.7505 16.1309Z" fill="#E1C561" stroke="#E1C561" stroke-width="0.4"/>
<path d="M54.1421 23.4248V24.1963L54.1255 24.2344L49.7368 34.3418L49.6851 34.4619H48.3638L48.4878 34.1816L52.7524 24.5205H46.8501V23.4248H54.1421Z" fill="#E1C561" stroke="#E1C561" stroke-width="0.4"/>
<path d="M49.7168 14.8545L49.5811 15.1406L40.4678 34.3604L40.4141 34.4746H39.1406L39.2793 34.1875L48.5576 14.9678L48.6123 14.8545H49.7168Z" fill="#E1C561" stroke="#E1C561" stroke-width="0.4"/>
</svg>
